%TF.GenerationSoftware,KiCad,Pcbnew,8.0.8*%
%TF.CreationDate,2025-01-21T23:24:59+01:00*%
%TF.ProjectId,STM32_Design,53544d33-325f-4446-9573-69676e2e6b69,rev?*%
%TF.SameCoordinates,Original*%
%TF.FileFunction,Soldermask,Top*%
%TF.FilePolarity,Negative*%
%FSLAX46Y46*%
G04 Gerber Fmt 4.6, Leading zero omitted, Abs format (unit mm)*
G04 Created by KiCad (PCBNEW 8.0.8) date 2025-01-21 23:24:59*
%MOMM*%
%LPD*%
G01*
G04 APERTURE LIST*
G04 Aperture macros list*
%AMRoundRect*
0 Rectangle with rounded corners*
0 $1 Rounding radius*
0 $2 $3 $4 $5 $6 $7 $8 $9 X,Y pos of 4 corners*
0 Add a 4 corners polygon primitive as box body*
4,1,4,$2,$3,$4,$5,$6,$7,$8,$9,$2,$3,0*
0 Add four circle primitives for the rounded corners*
1,1,$1+$1,$2,$3*
1,1,$1+$1,$4,$5*
1,1,$1+$1,$6,$7*
1,1,$1+$1,$8,$9*
0 Add four rect primitives between the rounded corners*
20,1,$1+$1,$2,$3,$4,$5,0*
20,1,$1+$1,$4,$5,$6,$7,0*
20,1,$1+$1,$6,$7,$8,$9,0*
20,1,$1+$1,$8,$9,$2,$3,0*%
G04 Aperture macros list end*
%ADD10RoundRect,0.075000X0.075000X-0.125000X0.075000X0.125000X-0.075000X0.125000X-0.075000X-0.125000X0*%
%ADD11R,2.400000X2.000000*%
%ADD12RoundRect,0.075000X-0.662500X-0.075000X0.662500X-0.075000X0.662500X0.075000X-0.662500X0.075000X0*%
%ADD13RoundRect,0.075000X-0.075000X-0.662500X0.075000X-0.662500X0.075000X0.662500X-0.075000X0.662500X0*%
%ADD14RoundRect,0.150000X0.150000X-0.512500X0.150000X0.512500X-0.150000X0.512500X-0.150000X-0.512500X0*%
%ADD15RoundRect,0.135000X0.185000X-0.135000X0.185000X0.135000X-0.185000X0.135000X-0.185000X-0.135000X0*%
%ADD16RoundRect,0.200000X0.200000X0.275000X-0.200000X0.275000X-0.200000X-0.275000X0.200000X-0.275000X0*%
%ADD17RoundRect,0.135000X0.135000X0.185000X-0.135000X0.185000X-0.135000X-0.185000X0.135000X-0.185000X0*%
%ADD18RoundRect,0.200000X-0.275000X0.200000X-0.275000X-0.200000X0.275000X-0.200000X0.275000X0.200000X0*%
%ADD19R,1.500000X1.000000*%
%ADD20R,1.700000X1.700000*%
%ADD21O,1.700000X1.700000*%
%ADD22O,0.800000X0.800000*%
%ADD23R,1.300000X0.450000*%
%ADD24O,1.800000X1.150000*%
%ADD25O,2.000000X1.450000*%
%ADD26RoundRect,0.218750X-0.381250X0.218750X-0.381250X-0.218750X0.381250X-0.218750X0.381250X0.218750X0*%
%ADD27RoundRect,0.100000X-0.130000X-0.100000X0.130000X-0.100000X0.130000X0.100000X-0.130000X0.100000X0*%
%ADD28RoundRect,0.100000X-0.100000X0.130000X-0.100000X-0.130000X0.100000X-0.130000X0.100000X0.130000X0*%
%ADD29RoundRect,0.140000X-0.140000X-0.170000X0.140000X-0.170000X0.140000X0.170000X-0.140000X0.170000X0*%
%ADD30RoundRect,0.140000X0.170000X-0.140000X0.170000X0.140000X-0.170000X0.140000X-0.170000X-0.140000X0*%
%ADD31RoundRect,0.140000X-0.170000X0.140000X-0.170000X-0.140000X0.170000X-0.140000X0.170000X0.140000X0*%
%ADD32RoundRect,0.140000X0.140000X0.170000X-0.140000X0.170000X-0.140000X-0.170000X0.140000X-0.170000X0*%
%ADD33RoundRect,0.225000X0.250000X-0.225000X0.250000X0.225000X-0.250000X0.225000X-0.250000X-0.225000X0*%
%ADD34RoundRect,0.225000X0.225000X0.250000X-0.225000X0.250000X-0.225000X-0.250000X0.225000X-0.250000X0*%
%ADD35RoundRect,0.225000X-0.250000X0.225000X-0.250000X-0.225000X0.250000X-0.225000X0.250000X0.225000X0*%
G04 APERTURE END LIST*
D10*
%TO.C,L1*%
X111750000Y-81775000D03*
X111750000Y-81275000D03*
%TD*%
D11*
%TO.C,Y1*%
X108500000Y-75150000D03*
X108500000Y-78850000D03*
%TD*%
D12*
%TO.C,U2*%
X114337500Y-75750000D03*
X114337500Y-76250000D03*
X114337500Y-76750000D03*
X114337500Y-77250000D03*
X114337500Y-77750000D03*
X114337500Y-78250000D03*
X114337500Y-78750000D03*
X114337500Y-79250000D03*
X114337500Y-79750000D03*
X114337500Y-80250000D03*
X114337500Y-80750000D03*
X114337500Y-81250000D03*
D13*
X115750000Y-82662500D03*
X116250000Y-82662500D03*
X116750000Y-82662500D03*
X117250000Y-82662500D03*
X117750000Y-82662500D03*
X118250000Y-82662500D03*
X118750000Y-82662500D03*
X119250000Y-82662500D03*
X119750000Y-82662500D03*
X120250000Y-82662500D03*
X120750000Y-82662500D03*
X121250000Y-82662500D03*
D12*
X122662500Y-81250000D03*
X122662500Y-80750000D03*
X122662500Y-80250000D03*
X122662500Y-79750000D03*
X122662500Y-79250000D03*
X122662500Y-78750000D03*
X122662500Y-78250000D03*
X122662500Y-77750000D03*
X122662500Y-77250000D03*
X122662500Y-76750000D03*
X122662500Y-76250000D03*
X122662500Y-75750000D03*
D13*
X121250000Y-74337500D03*
X120750000Y-74337500D03*
X120250000Y-74337500D03*
X119750000Y-74337500D03*
X119250000Y-74337500D03*
X118750000Y-74337500D03*
X118250000Y-74337500D03*
X117750000Y-74337500D03*
X117250000Y-74337500D03*
X116750000Y-74337500D03*
X116250000Y-74337500D03*
X115750000Y-74337500D03*
%TD*%
D14*
%TO.C,U1*%
X136500000Y-86862500D03*
X137450000Y-89137500D03*
X135550000Y-89137500D03*
%TD*%
D15*
%TO.C,R4*%
X136500000Y-78990000D03*
X136500000Y-80010000D03*
%TD*%
D16*
%TO.C,R3*%
X111150000Y-85000000D03*
X109500000Y-85000000D03*
%TD*%
D17*
%TO.C,R2*%
X118260000Y-70750000D03*
X117240000Y-70750000D03*
%TD*%
D18*
%TO.C,R1*%
X140500000Y-89350000D03*
X140500000Y-91000000D03*
%TD*%
D19*
%TO.C,JP1*%
X116250000Y-69150000D03*
X116250000Y-67850000D03*
%TD*%
D20*
%TO.C,J3*%
X138500000Y-96500000D03*
D21*
X135960000Y-96500000D03*
X133420000Y-96500000D03*
X130880000Y-96500000D03*
X128340000Y-96500000D03*
X125800000Y-96500000D03*
X123260000Y-96500000D03*
X120720000Y-96500000D03*
X118180000Y-96500000D03*
X115640000Y-96500000D03*
X113100000Y-96500000D03*
X110560000Y-96500000D03*
X108020000Y-96500000D03*
X105480000Y-96500000D03*
X102940000Y-96500000D03*
%TD*%
D20*
%TO.C,J2*%
X139000000Y-63500000D03*
D21*
X136460000Y-63500000D03*
X133920000Y-63500000D03*
X131380000Y-63500000D03*
X128840000Y-63500000D03*
X126300000Y-63500000D03*
X123760000Y-63500000D03*
X121220000Y-63500000D03*
X118680000Y-63500000D03*
X116140000Y-63500000D03*
X113600000Y-63500000D03*
X111060000Y-63500000D03*
X108520000Y-63500000D03*
X105980000Y-63500000D03*
X103440000Y-63500000D03*
%TD*%
D22*
%TO.C,J1*%
X139800000Y-82500000D03*
X139800000Y-77500000D03*
D23*
X138700000Y-81300000D03*
X138700000Y-80650000D03*
X138700000Y-80000000D03*
X138700000Y-79350000D03*
X138700000Y-78700000D03*
D24*
X142550000Y-83875000D03*
D25*
X138750000Y-83725000D03*
X138750000Y-76275000D03*
D24*
X142550000Y-76125000D03*
%TD*%
D26*
%TO.C,FB1*%
X136000000Y-82337500D03*
X136000000Y-84462500D03*
%TD*%
D27*
%TO.C,D2*%
X113320000Y-85000000D03*
X112680000Y-85000000D03*
%TD*%
D28*
%TO.C,D1*%
X139000000Y-90025000D03*
X139000000Y-90665000D03*
%TD*%
D29*
%TO.C,C11*%
X109040000Y-81000000D03*
X110000000Y-81000000D03*
%TD*%
%TO.C,C10*%
X108520000Y-73250000D03*
X109480000Y-73250000D03*
%TD*%
D30*
%TO.C,C9*%
X112750000Y-80230000D03*
X112750000Y-79270000D03*
%TD*%
%TO.C,C8*%
X111750000Y-80230000D03*
X111750000Y-79270000D03*
%TD*%
D29*
%TO.C,C7*%
X115020000Y-72750000D03*
X115980000Y-72750000D03*
%TD*%
D31*
%TO.C,C6*%
X124500000Y-76230000D03*
X124500000Y-75270000D03*
%TD*%
D32*
%TO.C,C5*%
X121020000Y-84500000D03*
X121980000Y-84500000D03*
%TD*%
%TO.C,C4*%
X114880000Y-74200000D03*
X113920000Y-74200000D03*
%TD*%
D33*
%TO.C,C3*%
X112250000Y-73025000D03*
X112250000Y-71475000D03*
%TD*%
D34*
%TO.C,C2*%
X135450000Y-91000000D03*
X137000000Y-91000000D03*
%TD*%
D35*
%TO.C,C1*%
X134000000Y-89275000D03*
X134000000Y-87725000D03*
%TD*%
M02*
