M48
; DRILL file {KiCad 8.0.8} date 2025-01-21T23:24:57+0100
; FORMAT={-:-/ absolute / inch / decimal}
; #@! TF.CreationDate,2025-01-21T23:24:57+01:00
; #@! TF.GenerationSoftware,Kicad,Pcbnew,8.0.8
; #@! TF.FileFunction,Plated,1,2,PTH
FMAT,2
INCH
; #@! TA.AperFunction,Plated,PTH,ViaDrill
T1C0.0118
; #@! TA.AperFunction,Plated,PTH,ComponentDrill
T2C0.0217
; #@! TA.AperFunction,Plated,PTH,ComponentDrill
T3C0.0335
; #@! TA.AperFunction,Plated,PTH,ComponentDrill
T4C0.0394
%
G90
G05
T1
X4.2815Y-3.4055
X4.3209Y-2.8543
X4.3307Y-3.2283
X4.3504Y-3.1289
X4.4193Y-2.7657
X4.4587Y-2.9134
X4.5669Y-3.1398
X4.6614Y-2.8346
X4.7539Y-3.1988
X4.9409Y-3.002
X5.2756Y-3.563
X5.3327Y-3.622
X5.3346Y-3.4646
X5.3724Y-2.5689
X5.4085Y-3.1002
X5.5315Y-3.622
T4
X4.0528Y-3.7992
X4.0724Y-2.5
X4.1528Y-3.7992
X4.1724Y-2.5
X4.2528Y-3.7992
X4.2724Y-2.5
X4.3528Y-3.7992
X4.3724Y-2.5
X4.4528Y-3.7992
X4.4724Y-2.5
X4.5528Y-3.7992
X4.5724Y-2.5
X4.6528Y-3.7992
X4.6724Y-2.5
X4.7528Y-3.7992
X4.7724Y-2.5
X4.8528Y-3.7992
X4.8724Y-2.5
X4.9528Y-3.7992
X4.9724Y-2.5
X5.0528Y-3.7992
X5.0724Y-2.5
X5.1528Y-3.7992
X5.1724Y-2.5
X5.2528Y-3.7992
X5.2724Y-2.5
X5.3528Y-3.7992
X5.3724Y-2.5
X5.4528Y-3.7992
X5.4724Y-2.5
T2
G00X5.5994Y-2.997
M15
G01X5.625Y-2.997
M16
G05
G00X5.5994Y-3.3022
M15
G01X5.625Y-3.3022
M16
G05
T3
G00X5.4518Y-3.003
M15
G01X5.4734Y-3.003
M16
G05
G00X5.4518Y-3.2963
M15
G01X5.4734Y-3.2963
M16
G05
M30
