%TF.GenerationSoftware,KiCad,Pcbnew,8.0.8*%
%TF.CreationDate,2025-01-21T23:24:59+01:00*%
%TF.ProjectId,STM32_Design,53544d33-325f-4446-9573-69676e2e6b69,rev?*%
%TF.SameCoordinates,Original*%
%TF.FileFunction,Legend,Top*%
%TF.FilePolarity,Positive*%
%FSLAX46Y46*%
G04 Gerber Fmt 4.6, Leading zero omitted, Abs format (unit mm)*
G04 Created by KiCad (PCBNEW 8.0.8) date 2025-01-21 23:24:59*
%MOMM*%
%LPD*%
G01*
G04 APERTURE LIST*
%ADD10C,0.150000*%
%ADD11C,0.120000*%
%ADD12C,0.100000*%
G04 APERTURE END LIST*
D10*
X112054819Y-83466666D02*
X112054819Y-83942856D01*
X112054819Y-83942856D02*
X111054819Y-83942856D01*
X112054819Y-82609523D02*
X112054819Y-83180951D01*
X112054819Y-82895237D02*
X111054819Y-82895237D01*
X111054819Y-82895237D02*
X111197676Y-82990475D01*
X111197676Y-82990475D02*
X111292914Y-83085713D01*
X111292914Y-83085713D02*
X111340533Y-83180951D01*
X105678628Y-77476190D02*
X106154819Y-77476190D01*
X105154819Y-77809523D02*
X105678628Y-77476190D01*
X105678628Y-77476190D02*
X105154819Y-77142857D01*
X106154819Y-76285714D02*
X106154819Y-76857142D01*
X106154819Y-76571428D02*
X105154819Y-76571428D01*
X105154819Y-76571428D02*
X105297676Y-76666666D01*
X105297676Y-76666666D02*
X105392914Y-76761904D01*
X105392914Y-76761904D02*
X105440533Y-76857142D01*
X120738095Y-71954819D02*
X120738095Y-72764342D01*
X120738095Y-72764342D02*
X120785714Y-72859580D01*
X120785714Y-72859580D02*
X120833333Y-72907200D01*
X120833333Y-72907200D02*
X120928571Y-72954819D01*
X120928571Y-72954819D02*
X121119047Y-72954819D01*
X121119047Y-72954819D02*
X121214285Y-72907200D01*
X121214285Y-72907200D02*
X121261904Y-72859580D01*
X121261904Y-72859580D02*
X121309523Y-72764342D01*
X121309523Y-72764342D02*
X121309523Y-71954819D01*
X121738095Y-72050057D02*
X121785714Y-72002438D01*
X121785714Y-72002438D02*
X121880952Y-71954819D01*
X121880952Y-71954819D02*
X122119047Y-71954819D01*
X122119047Y-71954819D02*
X122214285Y-72002438D01*
X122214285Y-72002438D02*
X122261904Y-72050057D01*
X122261904Y-72050057D02*
X122309523Y-72145295D01*
X122309523Y-72145295D02*
X122309523Y-72240533D01*
X122309523Y-72240533D02*
X122261904Y-72383390D01*
X122261904Y-72383390D02*
X121690476Y-72954819D01*
X121690476Y-72954819D02*
X122309523Y-72954819D01*
X134238095Y-85454819D02*
X134238095Y-86264342D01*
X134238095Y-86264342D02*
X134285714Y-86359580D01*
X134285714Y-86359580D02*
X134333333Y-86407200D01*
X134333333Y-86407200D02*
X134428571Y-86454819D01*
X134428571Y-86454819D02*
X134619047Y-86454819D01*
X134619047Y-86454819D02*
X134714285Y-86407200D01*
X134714285Y-86407200D02*
X134761904Y-86359580D01*
X134761904Y-86359580D02*
X134809523Y-86264342D01*
X134809523Y-86264342D02*
X134809523Y-85454819D01*
X135809523Y-86454819D02*
X135238095Y-86454819D01*
X135523809Y-86454819D02*
X135523809Y-85454819D01*
X135523809Y-85454819D02*
X135428571Y-85597676D01*
X135428571Y-85597676D02*
X135333333Y-85692914D01*
X135333333Y-85692914D02*
X135238095Y-85740533D01*
X135784819Y-79666666D02*
X135308628Y-79999999D01*
X135784819Y-80238094D02*
X134784819Y-80238094D01*
X134784819Y-80238094D02*
X134784819Y-79857142D01*
X134784819Y-79857142D02*
X134832438Y-79761904D01*
X134832438Y-79761904D02*
X134880057Y-79714285D01*
X134880057Y-79714285D02*
X134975295Y-79666666D01*
X134975295Y-79666666D02*
X135118152Y-79666666D01*
X135118152Y-79666666D02*
X135213390Y-79714285D01*
X135213390Y-79714285D02*
X135261009Y-79761904D01*
X135261009Y-79761904D02*
X135308628Y-79857142D01*
X135308628Y-79857142D02*
X135308628Y-80238094D01*
X135118152Y-78809523D02*
X135784819Y-78809523D01*
X134737200Y-79047618D02*
X135451485Y-79285713D01*
X135451485Y-79285713D02*
X135451485Y-78666666D01*
X110158333Y-86884819D02*
X109825000Y-86408628D01*
X109586905Y-86884819D02*
X109586905Y-85884819D01*
X109586905Y-85884819D02*
X109967857Y-85884819D01*
X109967857Y-85884819D02*
X110063095Y-85932438D01*
X110063095Y-85932438D02*
X110110714Y-85980057D01*
X110110714Y-85980057D02*
X110158333Y-86075295D01*
X110158333Y-86075295D02*
X110158333Y-86218152D01*
X110158333Y-86218152D02*
X110110714Y-86313390D01*
X110110714Y-86313390D02*
X110063095Y-86361009D01*
X110063095Y-86361009D02*
X109967857Y-86408628D01*
X109967857Y-86408628D02*
X109586905Y-86408628D01*
X110491667Y-85884819D02*
X111110714Y-85884819D01*
X111110714Y-85884819D02*
X110777381Y-86265771D01*
X110777381Y-86265771D02*
X110920238Y-86265771D01*
X110920238Y-86265771D02*
X111015476Y-86313390D01*
X111015476Y-86313390D02*
X111063095Y-86361009D01*
X111063095Y-86361009D02*
X111110714Y-86456247D01*
X111110714Y-86456247D02*
X111110714Y-86694342D01*
X111110714Y-86694342D02*
X111063095Y-86789580D01*
X111063095Y-86789580D02*
X111015476Y-86837200D01*
X111015476Y-86837200D02*
X110920238Y-86884819D01*
X110920238Y-86884819D02*
X110634524Y-86884819D01*
X110634524Y-86884819D02*
X110539286Y-86837200D01*
X110539286Y-86837200D02*
X110491667Y-86789580D01*
X117583333Y-72454819D02*
X117250000Y-71978628D01*
X117011905Y-72454819D02*
X117011905Y-71454819D01*
X117011905Y-71454819D02*
X117392857Y-71454819D01*
X117392857Y-71454819D02*
X117488095Y-71502438D01*
X117488095Y-71502438D02*
X117535714Y-71550057D01*
X117535714Y-71550057D02*
X117583333Y-71645295D01*
X117583333Y-71645295D02*
X117583333Y-71788152D01*
X117583333Y-71788152D02*
X117535714Y-71883390D01*
X117535714Y-71883390D02*
X117488095Y-71931009D01*
X117488095Y-71931009D02*
X117392857Y-71978628D01*
X117392857Y-71978628D02*
X117011905Y-71978628D01*
X117964286Y-71550057D02*
X118011905Y-71502438D01*
X118011905Y-71502438D02*
X118107143Y-71454819D01*
X118107143Y-71454819D02*
X118345238Y-71454819D01*
X118345238Y-71454819D02*
X118440476Y-71502438D01*
X118440476Y-71502438D02*
X118488095Y-71550057D01*
X118488095Y-71550057D02*
X118535714Y-71645295D01*
X118535714Y-71645295D02*
X118535714Y-71740533D01*
X118535714Y-71740533D02*
X118488095Y-71883390D01*
X118488095Y-71883390D02*
X117916667Y-72454819D01*
X117916667Y-72454819D02*
X118535714Y-72454819D01*
X140954819Y-87841666D02*
X140478628Y-88174999D01*
X140954819Y-88413094D02*
X139954819Y-88413094D01*
X139954819Y-88413094D02*
X139954819Y-88032142D01*
X139954819Y-88032142D02*
X140002438Y-87936904D01*
X140002438Y-87936904D02*
X140050057Y-87889285D01*
X140050057Y-87889285D02*
X140145295Y-87841666D01*
X140145295Y-87841666D02*
X140288152Y-87841666D01*
X140288152Y-87841666D02*
X140383390Y-87889285D01*
X140383390Y-87889285D02*
X140431009Y-87936904D01*
X140431009Y-87936904D02*
X140478628Y-88032142D01*
X140478628Y-88032142D02*
X140478628Y-88413094D01*
X140954819Y-86889285D02*
X140954819Y-87460713D01*
X140954819Y-87174999D02*
X139954819Y-87174999D01*
X139954819Y-87174999D02*
X140097676Y-87270237D01*
X140097676Y-87270237D02*
X140192914Y-87365475D01*
X140192914Y-87365475D02*
X140240533Y-87460713D01*
X113904819Y-69333333D02*
X114619104Y-69333333D01*
X114619104Y-69333333D02*
X114761961Y-69380952D01*
X114761961Y-69380952D02*
X114857200Y-69476190D01*
X114857200Y-69476190D02*
X114904819Y-69619047D01*
X114904819Y-69619047D02*
X114904819Y-69714285D01*
X114904819Y-68857142D02*
X113904819Y-68857142D01*
X113904819Y-68857142D02*
X113904819Y-68476190D01*
X113904819Y-68476190D02*
X113952438Y-68380952D01*
X113952438Y-68380952D02*
X114000057Y-68333333D01*
X114000057Y-68333333D02*
X114095295Y-68285714D01*
X114095295Y-68285714D02*
X114238152Y-68285714D01*
X114238152Y-68285714D02*
X114333390Y-68333333D01*
X114333390Y-68333333D02*
X114381009Y-68380952D01*
X114381009Y-68380952D02*
X114428628Y-68476190D01*
X114428628Y-68476190D02*
X114428628Y-68857142D01*
X114904819Y-67333333D02*
X114904819Y-67904761D01*
X114904819Y-67619047D02*
X113904819Y-67619047D01*
X113904819Y-67619047D02*
X114047676Y-67714285D01*
X114047676Y-67714285D02*
X114142914Y-67809523D01*
X114142914Y-67809523D02*
X114190533Y-67904761D01*
X140284819Y-96833333D02*
X140999104Y-96833333D01*
X140999104Y-96833333D02*
X141141961Y-96880952D01*
X141141961Y-96880952D02*
X141237200Y-96976190D01*
X141237200Y-96976190D02*
X141284819Y-97119047D01*
X141284819Y-97119047D02*
X141284819Y-97214285D01*
X140284819Y-96452380D02*
X140284819Y-95833333D01*
X140284819Y-95833333D02*
X140665771Y-96166666D01*
X140665771Y-96166666D02*
X140665771Y-96023809D01*
X140665771Y-96023809D02*
X140713390Y-95928571D01*
X140713390Y-95928571D02*
X140761009Y-95880952D01*
X140761009Y-95880952D02*
X140856247Y-95833333D01*
X140856247Y-95833333D02*
X141094342Y-95833333D01*
X141094342Y-95833333D02*
X141189580Y-95880952D01*
X141189580Y-95880952D02*
X141237200Y-95928571D01*
X141237200Y-95928571D02*
X141284819Y-96023809D01*
X141284819Y-96023809D02*
X141284819Y-96309523D01*
X141284819Y-96309523D02*
X141237200Y-96404761D01*
X141237200Y-96404761D02*
X141189580Y-96452380D01*
X140784819Y-63833333D02*
X141499104Y-63833333D01*
X141499104Y-63833333D02*
X141641961Y-63880952D01*
X141641961Y-63880952D02*
X141737200Y-63976190D01*
X141737200Y-63976190D02*
X141784819Y-64119047D01*
X141784819Y-64119047D02*
X141784819Y-64214285D01*
X140880057Y-63404761D02*
X140832438Y-63357142D01*
X140832438Y-63357142D02*
X140784819Y-63261904D01*
X140784819Y-63261904D02*
X140784819Y-63023809D01*
X140784819Y-63023809D02*
X140832438Y-62928571D01*
X140832438Y-62928571D02*
X140880057Y-62880952D01*
X140880057Y-62880952D02*
X140975295Y-62833333D01*
X140975295Y-62833333D02*
X141070533Y-62833333D01*
X141070533Y-62833333D02*
X141213390Y-62880952D01*
X141213390Y-62880952D02*
X141784819Y-63452380D01*
X141784819Y-63452380D02*
X141784819Y-62833333D01*
X141954819Y-74533333D02*
X142669104Y-74533333D01*
X142669104Y-74533333D02*
X142811961Y-74580952D01*
X142811961Y-74580952D02*
X142907200Y-74676190D01*
X142907200Y-74676190D02*
X142954819Y-74819047D01*
X142954819Y-74819047D02*
X142954819Y-74914285D01*
X142954819Y-73533333D02*
X142954819Y-74104761D01*
X142954819Y-73819047D02*
X141954819Y-73819047D01*
X141954819Y-73819047D02*
X142097676Y-73914285D01*
X142097676Y-73914285D02*
X142192914Y-74009523D01*
X142192914Y-74009523D02*
X142240533Y-74104761D01*
X134431009Y-83733333D02*
X134431009Y-84066666D01*
X134954819Y-84066666D02*
X133954819Y-84066666D01*
X133954819Y-84066666D02*
X133954819Y-83590476D01*
X134431009Y-82876190D02*
X134478628Y-82733333D01*
X134478628Y-82733333D02*
X134526247Y-82685714D01*
X134526247Y-82685714D02*
X134621485Y-82638095D01*
X134621485Y-82638095D02*
X134764342Y-82638095D01*
X134764342Y-82638095D02*
X134859580Y-82685714D01*
X134859580Y-82685714D02*
X134907200Y-82733333D01*
X134907200Y-82733333D02*
X134954819Y-82828571D01*
X134954819Y-82828571D02*
X134954819Y-83209523D01*
X134954819Y-83209523D02*
X133954819Y-83209523D01*
X133954819Y-83209523D02*
X133954819Y-82876190D01*
X133954819Y-82876190D02*
X134002438Y-82780952D01*
X134002438Y-82780952D02*
X134050057Y-82733333D01*
X134050057Y-82733333D02*
X134145295Y-82685714D01*
X134145295Y-82685714D02*
X134240533Y-82685714D01*
X134240533Y-82685714D02*
X134335771Y-82733333D01*
X134335771Y-82733333D02*
X134383390Y-82780952D01*
X134383390Y-82780952D02*
X134431009Y-82876190D01*
X134431009Y-82876190D02*
X134431009Y-83209523D01*
X134954819Y-81685714D02*
X134954819Y-82257142D01*
X134954819Y-81971428D02*
X133954819Y-81971428D01*
X133954819Y-81971428D02*
X134097676Y-82066666D01*
X134097676Y-82066666D02*
X134192914Y-82161904D01*
X134192914Y-82161904D02*
X134240533Y-82257142D01*
X112261905Y-84404819D02*
X112261905Y-83404819D01*
X112261905Y-83404819D02*
X112500000Y-83404819D01*
X112500000Y-83404819D02*
X112642857Y-83452438D01*
X112642857Y-83452438D02*
X112738095Y-83547676D01*
X112738095Y-83547676D02*
X112785714Y-83642914D01*
X112785714Y-83642914D02*
X112833333Y-83833390D01*
X112833333Y-83833390D02*
X112833333Y-83976247D01*
X112833333Y-83976247D02*
X112785714Y-84166723D01*
X112785714Y-84166723D02*
X112738095Y-84261961D01*
X112738095Y-84261961D02*
X112642857Y-84357200D01*
X112642857Y-84357200D02*
X112500000Y-84404819D01*
X112500000Y-84404819D02*
X112261905Y-84404819D01*
X113214286Y-83500057D02*
X113261905Y-83452438D01*
X113261905Y-83452438D02*
X113357143Y-83404819D01*
X113357143Y-83404819D02*
X113595238Y-83404819D01*
X113595238Y-83404819D02*
X113690476Y-83452438D01*
X113690476Y-83452438D02*
X113738095Y-83500057D01*
X113738095Y-83500057D02*
X113785714Y-83595295D01*
X113785714Y-83595295D02*
X113785714Y-83690533D01*
X113785714Y-83690533D02*
X113738095Y-83833390D01*
X113738095Y-83833390D02*
X113166667Y-84404819D01*
X113166667Y-84404819D02*
X113785714Y-84404819D01*
X139454819Y-92738094D02*
X138454819Y-92738094D01*
X138454819Y-92738094D02*
X138454819Y-92499999D01*
X138454819Y-92499999D02*
X138502438Y-92357142D01*
X138502438Y-92357142D02*
X138597676Y-92261904D01*
X138597676Y-92261904D02*
X138692914Y-92214285D01*
X138692914Y-92214285D02*
X138883390Y-92166666D01*
X138883390Y-92166666D02*
X139026247Y-92166666D01*
X139026247Y-92166666D02*
X139216723Y-92214285D01*
X139216723Y-92214285D02*
X139311961Y-92261904D01*
X139311961Y-92261904D02*
X139407200Y-92357142D01*
X139407200Y-92357142D02*
X139454819Y-92499999D01*
X139454819Y-92499999D02*
X139454819Y-92738094D01*
X139454819Y-91214285D02*
X139454819Y-91785713D01*
X139454819Y-91499999D02*
X138454819Y-91499999D01*
X138454819Y-91499999D02*
X138597676Y-91595237D01*
X138597676Y-91595237D02*
X138692914Y-91690475D01*
X138692914Y-91690475D02*
X138740533Y-91785713D01*
X106607142Y-81359580D02*
X106559523Y-81407200D01*
X106559523Y-81407200D02*
X106416666Y-81454819D01*
X106416666Y-81454819D02*
X106321428Y-81454819D01*
X106321428Y-81454819D02*
X106178571Y-81407200D01*
X106178571Y-81407200D02*
X106083333Y-81311961D01*
X106083333Y-81311961D02*
X106035714Y-81216723D01*
X106035714Y-81216723D02*
X105988095Y-81026247D01*
X105988095Y-81026247D02*
X105988095Y-80883390D01*
X105988095Y-80883390D02*
X106035714Y-80692914D01*
X106035714Y-80692914D02*
X106083333Y-80597676D01*
X106083333Y-80597676D02*
X106178571Y-80502438D01*
X106178571Y-80502438D02*
X106321428Y-80454819D01*
X106321428Y-80454819D02*
X106416666Y-80454819D01*
X106416666Y-80454819D02*
X106559523Y-80502438D01*
X106559523Y-80502438D02*
X106607142Y-80550057D01*
X107559523Y-81454819D02*
X106988095Y-81454819D01*
X107273809Y-81454819D02*
X107273809Y-80454819D01*
X107273809Y-80454819D02*
X107178571Y-80597676D01*
X107178571Y-80597676D02*
X107083333Y-80692914D01*
X107083333Y-80692914D02*
X106988095Y-80740533D01*
X108511904Y-81454819D02*
X107940476Y-81454819D01*
X108226190Y-81454819D02*
X108226190Y-80454819D01*
X108226190Y-80454819D02*
X108130952Y-80597676D01*
X108130952Y-80597676D02*
X108035714Y-80692914D01*
X108035714Y-80692914D02*
X107940476Y-80740533D01*
X108357142Y-71859580D02*
X108309523Y-71907200D01*
X108309523Y-71907200D02*
X108166666Y-71954819D01*
X108166666Y-71954819D02*
X108071428Y-71954819D01*
X108071428Y-71954819D02*
X107928571Y-71907200D01*
X107928571Y-71907200D02*
X107833333Y-71811961D01*
X107833333Y-71811961D02*
X107785714Y-71716723D01*
X107785714Y-71716723D02*
X107738095Y-71526247D01*
X107738095Y-71526247D02*
X107738095Y-71383390D01*
X107738095Y-71383390D02*
X107785714Y-71192914D01*
X107785714Y-71192914D02*
X107833333Y-71097676D01*
X107833333Y-71097676D02*
X107928571Y-71002438D01*
X107928571Y-71002438D02*
X108071428Y-70954819D01*
X108071428Y-70954819D02*
X108166666Y-70954819D01*
X108166666Y-70954819D02*
X108309523Y-71002438D01*
X108309523Y-71002438D02*
X108357142Y-71050057D01*
X109309523Y-71954819D02*
X108738095Y-71954819D01*
X109023809Y-71954819D02*
X109023809Y-70954819D01*
X109023809Y-70954819D02*
X108928571Y-71097676D01*
X108928571Y-71097676D02*
X108833333Y-71192914D01*
X108833333Y-71192914D02*
X108738095Y-71240533D01*
X109928571Y-70954819D02*
X110023809Y-70954819D01*
X110023809Y-70954819D02*
X110119047Y-71002438D01*
X110119047Y-71002438D02*
X110166666Y-71050057D01*
X110166666Y-71050057D02*
X110214285Y-71145295D01*
X110214285Y-71145295D02*
X110261904Y-71335771D01*
X110261904Y-71335771D02*
X110261904Y-71573866D01*
X110261904Y-71573866D02*
X110214285Y-71764342D01*
X110214285Y-71764342D02*
X110166666Y-71859580D01*
X110166666Y-71859580D02*
X110119047Y-71907200D01*
X110119047Y-71907200D02*
X110023809Y-71954819D01*
X110023809Y-71954819D02*
X109928571Y-71954819D01*
X109928571Y-71954819D02*
X109833333Y-71907200D01*
X109833333Y-71907200D02*
X109785714Y-71859580D01*
X109785714Y-71859580D02*
X109738095Y-71764342D01*
X109738095Y-71764342D02*
X109690476Y-71573866D01*
X109690476Y-71573866D02*
X109690476Y-71335771D01*
X109690476Y-71335771D02*
X109738095Y-71145295D01*
X109738095Y-71145295D02*
X109785714Y-71050057D01*
X109785714Y-71050057D02*
X109833333Y-71002438D01*
X109833333Y-71002438D02*
X109928571Y-70954819D01*
X113109580Y-78146666D02*
X113157200Y-78194285D01*
X113157200Y-78194285D02*
X113204819Y-78337142D01*
X113204819Y-78337142D02*
X113204819Y-78432380D01*
X113204819Y-78432380D02*
X113157200Y-78575237D01*
X113157200Y-78575237D02*
X113061961Y-78670475D01*
X113061961Y-78670475D02*
X112966723Y-78718094D01*
X112966723Y-78718094D02*
X112776247Y-78765713D01*
X112776247Y-78765713D02*
X112633390Y-78765713D01*
X112633390Y-78765713D02*
X112442914Y-78718094D01*
X112442914Y-78718094D02*
X112347676Y-78670475D01*
X112347676Y-78670475D02*
X112252438Y-78575237D01*
X112252438Y-78575237D02*
X112204819Y-78432380D01*
X112204819Y-78432380D02*
X112204819Y-78337142D01*
X112204819Y-78337142D02*
X112252438Y-78194285D01*
X112252438Y-78194285D02*
X112300057Y-78146666D01*
X113204819Y-77670475D02*
X113204819Y-77479999D01*
X113204819Y-77479999D02*
X113157200Y-77384761D01*
X113157200Y-77384761D02*
X113109580Y-77337142D01*
X113109580Y-77337142D02*
X112966723Y-77241904D01*
X112966723Y-77241904D02*
X112776247Y-77194285D01*
X112776247Y-77194285D02*
X112395295Y-77194285D01*
X112395295Y-77194285D02*
X112300057Y-77241904D01*
X112300057Y-77241904D02*
X112252438Y-77289523D01*
X112252438Y-77289523D02*
X112204819Y-77384761D01*
X112204819Y-77384761D02*
X112204819Y-77575237D01*
X112204819Y-77575237D02*
X112252438Y-77670475D01*
X112252438Y-77670475D02*
X112300057Y-77718094D01*
X112300057Y-77718094D02*
X112395295Y-77765713D01*
X112395295Y-77765713D02*
X112633390Y-77765713D01*
X112633390Y-77765713D02*
X112728628Y-77718094D01*
X112728628Y-77718094D02*
X112776247Y-77670475D01*
X112776247Y-77670475D02*
X112823866Y-77575237D01*
X112823866Y-77575237D02*
X112823866Y-77384761D01*
X112823866Y-77384761D02*
X112776247Y-77289523D01*
X112776247Y-77289523D02*
X112728628Y-77241904D01*
X112728628Y-77241904D02*
X112633390Y-77194285D01*
X111859580Y-78166666D02*
X111907200Y-78214285D01*
X111907200Y-78214285D02*
X111954819Y-78357142D01*
X111954819Y-78357142D02*
X111954819Y-78452380D01*
X111954819Y-78452380D02*
X111907200Y-78595237D01*
X111907200Y-78595237D02*
X111811961Y-78690475D01*
X111811961Y-78690475D02*
X111716723Y-78738094D01*
X111716723Y-78738094D02*
X111526247Y-78785713D01*
X111526247Y-78785713D02*
X111383390Y-78785713D01*
X111383390Y-78785713D02*
X111192914Y-78738094D01*
X111192914Y-78738094D02*
X111097676Y-78690475D01*
X111097676Y-78690475D02*
X111002438Y-78595237D01*
X111002438Y-78595237D02*
X110954819Y-78452380D01*
X110954819Y-78452380D02*
X110954819Y-78357142D01*
X110954819Y-78357142D02*
X111002438Y-78214285D01*
X111002438Y-78214285D02*
X111050057Y-78166666D01*
X111383390Y-77595237D02*
X111335771Y-77690475D01*
X111335771Y-77690475D02*
X111288152Y-77738094D01*
X111288152Y-77738094D02*
X111192914Y-77785713D01*
X111192914Y-77785713D02*
X111145295Y-77785713D01*
X111145295Y-77785713D02*
X111050057Y-77738094D01*
X111050057Y-77738094D02*
X111002438Y-77690475D01*
X111002438Y-77690475D02*
X110954819Y-77595237D01*
X110954819Y-77595237D02*
X110954819Y-77404761D01*
X110954819Y-77404761D02*
X111002438Y-77309523D01*
X111002438Y-77309523D02*
X111050057Y-77261904D01*
X111050057Y-77261904D02*
X111145295Y-77214285D01*
X111145295Y-77214285D02*
X111192914Y-77214285D01*
X111192914Y-77214285D02*
X111288152Y-77261904D01*
X111288152Y-77261904D02*
X111335771Y-77309523D01*
X111335771Y-77309523D02*
X111383390Y-77404761D01*
X111383390Y-77404761D02*
X111383390Y-77595237D01*
X111383390Y-77595237D02*
X111431009Y-77690475D01*
X111431009Y-77690475D02*
X111478628Y-77738094D01*
X111478628Y-77738094D02*
X111573866Y-77785713D01*
X111573866Y-77785713D02*
X111764342Y-77785713D01*
X111764342Y-77785713D02*
X111859580Y-77738094D01*
X111859580Y-77738094D02*
X111907200Y-77690475D01*
X111907200Y-77690475D02*
X111954819Y-77595237D01*
X111954819Y-77595237D02*
X111954819Y-77404761D01*
X111954819Y-77404761D02*
X111907200Y-77309523D01*
X111907200Y-77309523D02*
X111859580Y-77261904D01*
X111859580Y-77261904D02*
X111764342Y-77214285D01*
X111764342Y-77214285D02*
X111573866Y-77214285D01*
X111573866Y-77214285D02*
X111478628Y-77261904D01*
X111478628Y-77261904D02*
X111431009Y-77309523D01*
X111431009Y-77309523D02*
X111383390Y-77404761D01*
X114933333Y-71959580D02*
X114885714Y-72007200D01*
X114885714Y-72007200D02*
X114742857Y-72054819D01*
X114742857Y-72054819D02*
X114647619Y-72054819D01*
X114647619Y-72054819D02*
X114504762Y-72007200D01*
X114504762Y-72007200D02*
X114409524Y-71911961D01*
X114409524Y-71911961D02*
X114361905Y-71816723D01*
X114361905Y-71816723D02*
X114314286Y-71626247D01*
X114314286Y-71626247D02*
X114314286Y-71483390D01*
X114314286Y-71483390D02*
X114361905Y-71292914D01*
X114361905Y-71292914D02*
X114409524Y-71197676D01*
X114409524Y-71197676D02*
X114504762Y-71102438D01*
X114504762Y-71102438D02*
X114647619Y-71054819D01*
X114647619Y-71054819D02*
X114742857Y-71054819D01*
X114742857Y-71054819D02*
X114885714Y-71102438D01*
X114885714Y-71102438D02*
X114933333Y-71150057D01*
X115266667Y-71054819D02*
X115933333Y-71054819D01*
X115933333Y-71054819D02*
X115504762Y-72054819D01*
X125333333Y-74359580D02*
X125285714Y-74407200D01*
X125285714Y-74407200D02*
X125142857Y-74454819D01*
X125142857Y-74454819D02*
X125047619Y-74454819D01*
X125047619Y-74454819D02*
X124904762Y-74407200D01*
X124904762Y-74407200D02*
X124809524Y-74311961D01*
X124809524Y-74311961D02*
X124761905Y-74216723D01*
X124761905Y-74216723D02*
X124714286Y-74026247D01*
X124714286Y-74026247D02*
X124714286Y-73883390D01*
X124714286Y-73883390D02*
X124761905Y-73692914D01*
X124761905Y-73692914D02*
X124809524Y-73597676D01*
X124809524Y-73597676D02*
X124904762Y-73502438D01*
X124904762Y-73502438D02*
X125047619Y-73454819D01*
X125047619Y-73454819D02*
X125142857Y-73454819D01*
X125142857Y-73454819D02*
X125285714Y-73502438D01*
X125285714Y-73502438D02*
X125333333Y-73550057D01*
X126190476Y-73454819D02*
X126000000Y-73454819D01*
X126000000Y-73454819D02*
X125904762Y-73502438D01*
X125904762Y-73502438D02*
X125857143Y-73550057D01*
X125857143Y-73550057D02*
X125761905Y-73692914D01*
X125761905Y-73692914D02*
X125714286Y-73883390D01*
X125714286Y-73883390D02*
X125714286Y-74264342D01*
X125714286Y-74264342D02*
X125761905Y-74359580D01*
X125761905Y-74359580D02*
X125809524Y-74407200D01*
X125809524Y-74407200D02*
X125904762Y-74454819D01*
X125904762Y-74454819D02*
X126095238Y-74454819D01*
X126095238Y-74454819D02*
X126190476Y-74407200D01*
X126190476Y-74407200D02*
X126238095Y-74359580D01*
X126238095Y-74359580D02*
X126285714Y-74264342D01*
X126285714Y-74264342D02*
X126285714Y-74026247D01*
X126285714Y-74026247D02*
X126238095Y-73931009D01*
X126238095Y-73931009D02*
X126190476Y-73883390D01*
X126190476Y-73883390D02*
X126095238Y-73835771D01*
X126095238Y-73835771D02*
X125904762Y-73835771D01*
X125904762Y-73835771D02*
X125809524Y-73883390D01*
X125809524Y-73883390D02*
X125761905Y-73931009D01*
X125761905Y-73931009D02*
X125714286Y-74026247D01*
X121333333Y-86019580D02*
X121285714Y-86067200D01*
X121285714Y-86067200D02*
X121142857Y-86114819D01*
X121142857Y-86114819D02*
X121047619Y-86114819D01*
X121047619Y-86114819D02*
X120904762Y-86067200D01*
X120904762Y-86067200D02*
X120809524Y-85971961D01*
X120809524Y-85971961D02*
X120761905Y-85876723D01*
X120761905Y-85876723D02*
X120714286Y-85686247D01*
X120714286Y-85686247D02*
X120714286Y-85543390D01*
X120714286Y-85543390D02*
X120761905Y-85352914D01*
X120761905Y-85352914D02*
X120809524Y-85257676D01*
X120809524Y-85257676D02*
X120904762Y-85162438D01*
X120904762Y-85162438D02*
X121047619Y-85114819D01*
X121047619Y-85114819D02*
X121142857Y-85114819D01*
X121142857Y-85114819D02*
X121285714Y-85162438D01*
X121285714Y-85162438D02*
X121333333Y-85210057D01*
X122238095Y-85114819D02*
X121761905Y-85114819D01*
X121761905Y-85114819D02*
X121714286Y-85591009D01*
X121714286Y-85591009D02*
X121761905Y-85543390D01*
X121761905Y-85543390D02*
X121857143Y-85495771D01*
X121857143Y-85495771D02*
X122095238Y-85495771D01*
X122095238Y-85495771D02*
X122190476Y-85543390D01*
X122190476Y-85543390D02*
X122238095Y-85591009D01*
X122238095Y-85591009D02*
X122285714Y-85686247D01*
X122285714Y-85686247D02*
X122285714Y-85924342D01*
X122285714Y-85924342D02*
X122238095Y-86019580D01*
X122238095Y-86019580D02*
X122190476Y-86067200D01*
X122190476Y-86067200D02*
X122095238Y-86114819D01*
X122095238Y-86114819D02*
X121857143Y-86114819D01*
X121857143Y-86114819D02*
X121761905Y-86067200D01*
X121761905Y-86067200D02*
X121714286Y-86019580D01*
X114159580Y-72966666D02*
X114207200Y-73014285D01*
X114207200Y-73014285D02*
X114254819Y-73157142D01*
X114254819Y-73157142D02*
X114254819Y-73252380D01*
X114254819Y-73252380D02*
X114207200Y-73395237D01*
X114207200Y-73395237D02*
X114111961Y-73490475D01*
X114111961Y-73490475D02*
X114016723Y-73538094D01*
X114016723Y-73538094D02*
X113826247Y-73585713D01*
X113826247Y-73585713D02*
X113683390Y-73585713D01*
X113683390Y-73585713D02*
X113492914Y-73538094D01*
X113492914Y-73538094D02*
X113397676Y-73490475D01*
X113397676Y-73490475D02*
X113302438Y-73395237D01*
X113302438Y-73395237D02*
X113254819Y-73252380D01*
X113254819Y-73252380D02*
X113254819Y-73157142D01*
X113254819Y-73157142D02*
X113302438Y-73014285D01*
X113302438Y-73014285D02*
X113350057Y-72966666D01*
X113588152Y-72109523D02*
X114254819Y-72109523D01*
X113207200Y-72347618D02*
X113921485Y-72585713D01*
X113921485Y-72585713D02*
X113921485Y-71966666D01*
X112659580Y-69166666D02*
X112707200Y-69214285D01*
X112707200Y-69214285D02*
X112754819Y-69357142D01*
X112754819Y-69357142D02*
X112754819Y-69452380D01*
X112754819Y-69452380D02*
X112707200Y-69595237D01*
X112707200Y-69595237D02*
X112611961Y-69690475D01*
X112611961Y-69690475D02*
X112516723Y-69738094D01*
X112516723Y-69738094D02*
X112326247Y-69785713D01*
X112326247Y-69785713D02*
X112183390Y-69785713D01*
X112183390Y-69785713D02*
X111992914Y-69738094D01*
X111992914Y-69738094D02*
X111897676Y-69690475D01*
X111897676Y-69690475D02*
X111802438Y-69595237D01*
X111802438Y-69595237D02*
X111754819Y-69452380D01*
X111754819Y-69452380D02*
X111754819Y-69357142D01*
X111754819Y-69357142D02*
X111802438Y-69214285D01*
X111802438Y-69214285D02*
X111850057Y-69166666D01*
X111754819Y-68833332D02*
X111754819Y-68214285D01*
X111754819Y-68214285D02*
X112135771Y-68547618D01*
X112135771Y-68547618D02*
X112135771Y-68404761D01*
X112135771Y-68404761D02*
X112183390Y-68309523D01*
X112183390Y-68309523D02*
X112231009Y-68261904D01*
X112231009Y-68261904D02*
X112326247Y-68214285D01*
X112326247Y-68214285D02*
X112564342Y-68214285D01*
X112564342Y-68214285D02*
X112659580Y-68261904D01*
X112659580Y-68261904D02*
X112707200Y-68309523D01*
X112707200Y-68309523D02*
X112754819Y-68404761D01*
X112754819Y-68404761D02*
X112754819Y-68690475D01*
X112754819Y-68690475D02*
X112707200Y-68785713D01*
X112707200Y-68785713D02*
X112659580Y-68833332D01*
X136058333Y-92789580D02*
X136010714Y-92837200D01*
X136010714Y-92837200D02*
X135867857Y-92884819D01*
X135867857Y-92884819D02*
X135772619Y-92884819D01*
X135772619Y-92884819D02*
X135629762Y-92837200D01*
X135629762Y-92837200D02*
X135534524Y-92741961D01*
X135534524Y-92741961D02*
X135486905Y-92646723D01*
X135486905Y-92646723D02*
X135439286Y-92456247D01*
X135439286Y-92456247D02*
X135439286Y-92313390D01*
X135439286Y-92313390D02*
X135486905Y-92122914D01*
X135486905Y-92122914D02*
X135534524Y-92027676D01*
X135534524Y-92027676D02*
X135629762Y-91932438D01*
X135629762Y-91932438D02*
X135772619Y-91884819D01*
X135772619Y-91884819D02*
X135867857Y-91884819D01*
X135867857Y-91884819D02*
X136010714Y-91932438D01*
X136010714Y-91932438D02*
X136058333Y-91980057D01*
X136439286Y-91980057D02*
X136486905Y-91932438D01*
X136486905Y-91932438D02*
X136582143Y-91884819D01*
X136582143Y-91884819D02*
X136820238Y-91884819D01*
X136820238Y-91884819D02*
X136915476Y-91932438D01*
X136915476Y-91932438D02*
X136963095Y-91980057D01*
X136963095Y-91980057D02*
X137010714Y-92075295D01*
X137010714Y-92075295D02*
X137010714Y-92170533D01*
X137010714Y-92170533D02*
X136963095Y-92313390D01*
X136963095Y-92313390D02*
X136391667Y-92884819D01*
X136391667Y-92884819D02*
X137010714Y-92884819D01*
X132859580Y-88666666D02*
X132907200Y-88714285D01*
X132907200Y-88714285D02*
X132954819Y-88857142D01*
X132954819Y-88857142D02*
X132954819Y-88952380D01*
X132954819Y-88952380D02*
X132907200Y-89095237D01*
X132907200Y-89095237D02*
X132811961Y-89190475D01*
X132811961Y-89190475D02*
X132716723Y-89238094D01*
X132716723Y-89238094D02*
X132526247Y-89285713D01*
X132526247Y-89285713D02*
X132383390Y-89285713D01*
X132383390Y-89285713D02*
X132192914Y-89238094D01*
X132192914Y-89238094D02*
X132097676Y-89190475D01*
X132097676Y-89190475D02*
X132002438Y-89095237D01*
X132002438Y-89095237D02*
X131954819Y-88952380D01*
X131954819Y-88952380D02*
X131954819Y-88857142D01*
X131954819Y-88857142D02*
X132002438Y-88714285D01*
X132002438Y-88714285D02*
X132050057Y-88666666D01*
X132954819Y-87714285D02*
X132954819Y-88285713D01*
X132954819Y-87999999D02*
X131954819Y-87999999D01*
X131954819Y-87999999D02*
X132097676Y-88095237D01*
X132097676Y-88095237D02*
X132192914Y-88190475D01*
X132192914Y-88190475D02*
X132240533Y-88285713D01*
D11*
%TO.C,Y1*%
X110300000Y-73950000D02*
X106700000Y-73950000D01*
X106700000Y-73950000D02*
X106700000Y-79700000D01*
X110300000Y-79700000D02*
X110300000Y-73950000D01*
%TO.C,U2*%
X114890000Y-74890000D02*
X114890000Y-75340000D01*
X114890000Y-82110000D02*
X114890000Y-81660000D01*
X115340000Y-74890000D02*
X114890000Y-74890000D01*
X115340000Y-82110000D02*
X114890000Y-82110000D01*
X121660000Y-74890000D02*
X122110000Y-74890000D01*
X121660000Y-82110000D02*
X122110000Y-82110000D01*
X122110000Y-74890000D02*
X122110000Y-75340000D01*
X122110000Y-82110000D02*
X122110000Y-81660000D01*
X114300000Y-75340000D02*
X113960000Y-74870000D01*
X114640000Y-74870000D01*
X114300000Y-75340000D01*
G36*
X114300000Y-75340000D02*
G01*
X113960000Y-74870000D01*
X114640000Y-74870000D01*
X114300000Y-75340000D01*
G37*
%TO.C,U1*%
X134990000Y-89300000D02*
X134660000Y-89540000D01*
X134660000Y-89060000D01*
X134990000Y-89300000D01*
G36*
X134990000Y-89300000D02*
G01*
X134660000Y-89540000D01*
X134660000Y-89060000D01*
X134990000Y-89300000D01*
G37*
X138060000Y-88000000D02*
X138060000Y-87200000D01*
X138060000Y-88000000D02*
X138060000Y-88800000D01*
X134940000Y-88000000D02*
X134940000Y-87200000D01*
X134940000Y-88000000D02*
X134940000Y-88800000D01*
%TO.C,R4*%
X136880000Y-79653641D02*
X136880000Y-79346359D01*
X136120000Y-79653641D02*
X136120000Y-79346359D01*
%TO.C,R3*%
X110562258Y-85522500D02*
X110087742Y-85522500D01*
X110562258Y-84477500D02*
X110087742Y-84477500D01*
%TO.C,R2*%
X117903641Y-71130000D02*
X117596359Y-71130000D01*
X117903641Y-70370000D02*
X117596359Y-70370000D01*
%TO.C,R1*%
X141022500Y-89937742D02*
X141022500Y-90412258D01*
X139977500Y-89937742D02*
X139977500Y-90412258D01*
%TO.C,JP1*%
X115250000Y-69900000D02*
X115250000Y-67100000D01*
X117250000Y-69900000D02*
X115250000Y-69900000D01*
X115250000Y-67100000D02*
X117250000Y-67100000D01*
X117250000Y-67100000D02*
X117250000Y-69900000D01*
%TO.C,J3*%
X139830000Y-95170000D02*
X139830000Y-96500000D01*
X138500000Y-95170000D02*
X139830000Y-95170000D01*
X137230000Y-95170000D02*
X101610000Y-95170000D01*
X137230000Y-95170000D02*
X137230000Y-97830000D01*
X101610000Y-95170000D02*
X101610000Y-97830000D01*
X137230000Y-97830000D02*
X101610000Y-97830000D01*
%TO.C,J2*%
X140330000Y-62170000D02*
X140330000Y-63500000D01*
X139000000Y-62170000D02*
X140330000Y-62170000D01*
X137730000Y-62170000D02*
X102110000Y-62170000D01*
X137730000Y-62170000D02*
X137730000Y-64830000D01*
X102110000Y-62170000D02*
X102110000Y-64830000D01*
X137730000Y-64830000D02*
X102110000Y-64830000D01*
D10*
%TO.C,J1*%
X139950000Y-84150000D02*
X141350000Y-84150000D01*
X143750000Y-84150000D02*
X143900000Y-84150000D01*
X143900000Y-84150000D02*
X143900000Y-83850000D01*
X143900000Y-83850000D02*
X144350000Y-83850000D01*
X137775000Y-81800000D02*
X138200000Y-81800000D01*
X138200000Y-81800000D02*
X138200000Y-82800000D01*
X137775000Y-81075000D02*
X137775000Y-81800000D01*
X138200000Y-78200000D02*
X138200000Y-77200000D01*
X143900000Y-76150000D02*
X143900000Y-75850000D01*
X144350000Y-76150000D02*
X143900000Y-76150000D01*
X141350000Y-75850000D02*
X139950000Y-75850000D01*
X143900000Y-75850000D02*
X143750000Y-75850000D01*
D11*
%TO.C,FB1*%
X136560000Y-83000378D02*
X136560000Y-83799622D01*
X135440000Y-83000378D02*
X135440000Y-83799622D01*
D12*
%TO.C,D2*%
X112190000Y-85000000D02*
G75*
G02*
X112090000Y-85000000I-50000J0D01*
G01*
X112090000Y-85000000D02*
G75*
G02*
X112190000Y-85000000I50000J0D01*
G01*
%TO.C,D1*%
X139050000Y-89485000D02*
G75*
G02*
X138950000Y-89485000I-50000J0D01*
G01*
X138950000Y-89485000D02*
G75*
G02*
X139050000Y-89485000I50000J0D01*
G01*
D11*
%TO.C,C11*%
X109412164Y-80640000D02*
X109627836Y-80640000D01*
X109412164Y-81360000D02*
X109627836Y-81360000D01*
%TO.C,C10*%
X108892164Y-72890000D02*
X109107836Y-72890000D01*
X108892164Y-73610000D02*
X109107836Y-73610000D01*
%TO.C,C9*%
X112390000Y-79857836D02*
X112390000Y-79642164D01*
X113110000Y-79857836D02*
X113110000Y-79642164D01*
%TO.C,C8*%
X111390000Y-79857836D02*
X111390000Y-79642164D01*
X112110000Y-79857836D02*
X112110000Y-79642164D01*
%TO.C,C7*%
X115392164Y-72390000D02*
X115607836Y-72390000D01*
X115392164Y-73110000D02*
X115607836Y-73110000D01*
%TO.C,C6*%
X124140000Y-75642164D02*
X124140000Y-75857836D01*
X124860000Y-75642164D02*
X124860000Y-75857836D01*
%TO.C,C5*%
X121607836Y-84140000D02*
X121392164Y-84140000D01*
X121607836Y-84860000D02*
X121392164Y-84860000D01*
%TO.C,C4*%
X114507836Y-74560000D02*
X114292164Y-74560000D01*
X114507836Y-73840000D02*
X114292164Y-73840000D01*
%TO.C,C3*%
X111740000Y-72390580D02*
X111740000Y-72109420D01*
X112760000Y-72390580D02*
X112760000Y-72109420D01*
%TO.C,C2*%
X136365580Y-90490000D02*
X136084420Y-90490000D01*
X136365580Y-91510000D02*
X136084420Y-91510000D01*
%TO.C,C1*%
X133490000Y-88359420D02*
X133490000Y-88640580D01*
X134510000Y-88359420D02*
X134510000Y-88640580D01*
%TD*%
M02*
